<?xml version="1.0" encoding="UTF-8"?>
<svg width="50px" height="50px" viewBox="0 0 50 50" version="1.1" xmlns="http://www.w3.org/2000/svg" xmlns:xlink="http://www.w3.org/1999/xlink">
    <!-- Generator: Sketch 59.1 (86144) - https://sketch.com -->
    <title>plus</title>
    <desc>Created with Sketch.</desc>
    <g id="Page-1" stroke="none" stroke-width="1" fill="none" fill-rule="evenodd">
        <path d="M25,8.17124146e-14 C28.0782192,8.22778743e-14 30.6309437,2.55272447 30.6309437,5.63094369 L30.63,19.369 L44.3690563,19.3690563 C47.4471255,19.3690563 50,21.9217808 50,25 C50,28.0782192 47.4472755,30.6309437 44.3690563,30.6309437 L30.63,30.63 L30.6309437,44.3690563 C30.6309437,47.4471255 28.0782192,50.0005 25,50.0005 C21.9217808,50.0005 19.3690563,47.4472755 19.3690563,44.3690563 L19.369,30.63 L5.63094369,30.6309437 C2.55287447,30.6309437 -9.9475983e-14,28.0782192 -9.9475983e-14,25 C-9.9475983e-14,21.9217808 2.55272447,19.3690563 5.63094369,19.3690563 L19.369,19.369 L19.3690563,5.63094369 C19.3690563,2.55287447 21.9217808,8.11469549e-14 25,8.17124146e-14 Z" id="plus" fill="#FFFFFF" fill-rule="nonzero"></path>
    </g>
</svg>